<svg version="1.1" id="Layer_1" xmlns="http://www.w3.org/2000/svg" xmlns:xlink="http://www.w3.org/1999/xlink" x="0px" y="0px"
	 width="100%" viewBox="0 0 960 960" enable-background="new 0 0 960 960" xml:space="preserve">
<path fill="#FFFFFF" opacity="1.000000" stroke="none" 
	d="
M528.000000,961.000000 
	C352.000000,961.000000 176.500000,961.000000 1.000000,961.000000 
	C1.000000,641.000000 1.000000,321.000000 1.000000,1.000000 
	C321.000000,1.000000 641.000000,1.000000 961.000000,1.000000 
	C961.000000,321.000000 961.000000,641.000000 961.000000,961.000000 
	C816.833313,961.000000 672.666687,961.000000 528.000000,961.000000 
M112.194443,416.997559 
	C108.524200,417.114319 103.821648,415.915466 105.574165,422.607025 
	C105.817474,423.536041 104.662193,424.748444 104.532715,425.873199 
	C104.110352,429.542175 103.469994,433.251678 103.659271,436.906952 
	C103.848328,440.558105 104.935333,444.162750 105.791298,448.637939 
	C106.546478,448.830505 108.991348,448.962524 110.817001,450.093842 
	C112.015503,450.836487 112.583496,452.971588 112.895630,454.587067 
	C113.022278,455.242554 111.616928,456.934601 111.082878,456.862579 
	C105.785690,456.148529 99.481964,459.948914 95.960999,453.768616 
	C93.949623,455.467865 91.856873,456.726624 90.499428,458.536774 
	C89.321312,460.107849 88.418854,462.290466 88.374519,464.225250 
	C88.272446,468.678925 89.025795,473.151855 88.930420,477.606201 
	C88.863373,480.737305 88.078232,483.544678 91.861435,485.396179 
	C94.536270,486.705200 96.611694,490.503693 99.118958,490.666840 
	C108.854919,491.300385 118.656555,490.924774 128.343704,490.924774 
	C128.857834,488.595398 129.230301,486.907928 129.646652,485.021576 
	C132.947968,486.112885 135.859482,487.075348 138.655502,487.999634 
	C143.036514,482.354492 148.810028,480.604340 155.500168,480.695465 
	C155.791183,478.841797 156.040634,477.252899 156.330078,475.409241 
	C157.840225,475.409241 159.203522,475.409241 160.672806,475.409241 
	C160.785294,474.448273 160.925858,473.800049 160.927155,473.151550 
	C160.941284,466.070953 160.988113,458.989380 160.867188,451.910767 
	C160.850998,450.961945 160.198288,449.578796 159.428253,449.166534 
	C156.396866,447.543793 156.225372,446.275299 159.133881,444.195526 
	C160.141281,443.475159 161.085388,440.999359 160.603973,440.144073 
	C158.139954,435.766510 160.432709,434.501953 164.141815,433.950226 
	C166.932434,433.535095 167.986267,432.109589 168.029922,429.227722 
	C168.110107,423.934082 168.789597,418.649719 168.875153,413.355927 
	C168.924988,410.272614 168.306610,407.178558 167.988876,404.089325 
	C167.493652,403.882874 166.998413,403.676392 166.503189,403.469910 
	C162.347595,409.267365 156.474976,407.998657 150.947083,408.034424 
	C142.949173,408.086182 134.945847,407.878174 126.954292,408.108612 
	C122.528107,408.236237 118.121147,409.030823 113.047424,409.598389 
	C113.047424,411.474182 113.047424,414.267853 113.000549,417.000641 
	C113.000549,417.000641 113.061470,417.047424 112.194443,416.997559 
M866.487854,481.663116 
	C867.317566,480.405945 868.677673,479.229156 868.882568,477.877289 
	C869.646606,472.835754 870.212036,467.746521 870.487488,462.655457 
	C870.638977,459.856506 870.145142,457.795166 865.916626,458.355042 
	C860.248474,459.105591 854.406128,458.541016 848.612305,458.541016 
	C848.612305,456.834106 848.612305,455.246460 848.612305,454.103973 
	C843.200745,449.823792 837.491028,457.738831 833.001099,453.977936 
	C833.001099,450.042084 833.141174,447.163025 832.960999,444.304138 
	C832.787231,441.547791 834.103333,440.742004 836.542786,440.952515 
	C840.508240,441.294800 844.239990,441.205566 844.782349,436.607819 
	C850.268250,437.078613 855.300781,437.625763 860.348145,437.902069 
	C863.570068,438.078430 865.371094,436.494446 865.323792,432.840057 
	C865.323792,432.840057 865.714172,432.770996 866.523376,432.895172 
	C867.655090,432.895172 868.786743,432.895172 869.230774,432.895172 
	C870.065125,427.178894 870.787903,421.870758 871.630432,416.581726 
	C872.179138,413.137146 867.850464,407.237701 864.821899,407.246765 
	C855.748169,407.273895 846.674072,407.168976 837.600281,407.183380 
	C836.663635,407.184875 835.712402,407.594574 834.794373,407.895386 
	C832.679260,408.588409 830.625183,409.535675 828.464966,410.007843 
	C824.802490,410.808441 821.077271,411.321899 817.140625,411.996826 
	C819.716125,420.840515 810.031799,418.979828 807.185547,423.231781 
	C807.600281,423.351715 808.015015,423.471649 808.429810,423.591583 
	C807.856995,426.019409 807.284241,428.447266 806.371643,432.315704 
	C804.152771,429.576416 802.957520,428.100861 801.762329,426.625305 
	C801.208191,431.702545 801.802246,436.532471 802.287170,441.373352 
	C802.461243,443.111206 802.844238,445.036743 802.310913,446.595795 
	C800.969971,450.516205 799.248962,454.204834 803.360840,457.632935 
	C803.864441,458.052734 803.519287,459.723175 803.275696,460.744415 
	C803.005066,461.878510 802.399841,462.932770 801.525635,465.004700 
	C806.804565,464.186646 809.785828,465.719788 809.686035,470.456207 
	C809.572815,475.834015 806.213867,477.948517 801.018677,477.794586 
	C801.215210,478.830872 801.124268,479.777435 801.499634,480.029480 
	C802.251709,480.534515 803.375732,481.082764 804.141174,480.871246 
	C808.252075,479.735138 812.299866,478.370941 816.584717,477.017487 
	C817.482910,482.553497 823.106079,481.299896 826.733215,481.606476 
	C831.638123,482.020996 833.734619,483.548798 833.154907,489.776001 
	C843.866943,490.308594 854.204590,490.822571 864.969971,491.357819 
	C864.969971,487.371521 864.969971,484.721802 865.301819,481.825287 
	C865.301819,481.825287 865.703430,481.726532 866.487854,481.663116 
M408.603729,480.925476 
	C411.191467,480.124023 414.589539,480.089630 416.212677,478.375031 
	C420.799103,473.530151 426.191376,477.001251 431.100159,476.341217 
	C431.530212,476.283386 432.537476,480.622711 433.314880,482.906677 
	C433.408173,483.180664 433.742981,483.372406 433.874237,483.507782 
	C443.772614,484.080353 453.556183,484.646301 463.952087,485.247650 
	C460.744019,473.670441 457.831451,463.159515 454.892334,452.552826 
	C455.278473,452.344940 456.041473,451.934113 456.804474,451.523285 
	C455.929047,450.710663 455.063049,449.216187 454.176544,449.203949 
	C450.412231,449.151855 450.237183,446.937164 449.835327,443.963043 
	C449.231018,439.490448 448.065887,435.049591 446.696472,430.735779 
	C445.043304,425.528381 442.476929,420.583038 441.129730,415.313629 
	C439.552887,409.145935 436.526642,406.846100 430.728241,408.574615 
	C429.484314,408.945435 428.110168,408.992371 426.795563,408.995392 
	C413.976959,409.024902 401.158203,409.037384 388.339630,409.003510 
	C381.856750,408.986389 380.674744,407.669098 381.457336,401.620605 
	C381.037598,401.365082 380.617859,401.109558 380.198120,400.854065 
	C379.348877,402.351776 378.499603,403.849487 377.524719,405.568726 
	C371.638367,405.004120 370.791840,406.015381 369.336395,416.826172 
	C373.627045,414.635132 374.096771,417.589600 374.250519,420.421234 
	C374.408508,423.330627 374.142365,426.264008 374.041687,429.186218 
	C373.967010,431.354279 374.053436,433.360229 377.585388,432.947632 
	C377.585388,432.947632 378.022583,433.090698 378.580811,433.627228 
	C380.224945,433.787811 382.741150,433.330933 383.365845,434.213226 
	C386.467529,438.594147 389.337982,436.172699 392.134430,434.152344 
	C395.656982,438.760559 394.052582,447.656616 390.477539,449.348175 
	C390.022705,452.173187 389.842865,454.421295 389.280365,456.569183 
	C387.682220,462.671600 385.782501,468.699554 384.366638,474.841003 
	C384.106171,475.970795 385.557983,477.495361 386.981873,478.781586 
	C387.991791,478.875763 389.001709,478.969940 390.529907,479.595673 
	C395.681854,480.054962 400.833832,480.514252 406.566711,480.880005 
	C406.957977,480.854004 407.349243,480.828003 408.603729,480.925476 
M559.520508,457.500671 
	C559.522034,464.329987 559.653809,471.162842 559.468750,477.987091 
	C559.379700,481.273163 560.562866,482.443359 563.814270,482.290283 
	C568.468628,482.071106 573.142639,482.063080 577.801025,482.204193 
	C581.028870,482.301971 582.172974,481.108521 582.108765,477.821594 
	C581.929932,468.663940 582.053894,459.500366 582.056641,450.339142 
	C582.058289,444.724182 582.057007,439.109253 582.057007,432.959320 
	C588.544373,432.959320 594.349731,432.849121 600.147888,433.006683 
	C602.970642,433.083405 604.064941,431.993958 604.035339,429.244690 
	C603.988708,424.915863 603.987488,420.579559 604.192261,416.257080 
	C604.379272,412.307861 603.150635,410.705292 598.773499,410.750885 
	C577.955261,410.967743 557.133118,410.799866 536.312561,410.833679 
	C534.219116,410.837067 532.126404,411.275909 530.164734,411.497803 
	C530.164734,418.780273 530.164734,425.549011 530.164734,432.752838 
	C532.296692,432.847443 534.084290,432.989777 535.872314,432.994568 
	C541.868042,433.010620 547.867432,433.094849 553.858459,432.917847 
	C557.256165,432.817413 559.164307,433.642822 559.124756,437.546234 
	C559.060730,443.862610 559.369873,450.182739 559.520508,457.500671 
M309.090973,418.884277 
	C308.928162,412.515717 307.332214,409.985565 302.944794,409.963776 
	C281.121948,409.855225 259.298462,409.861481 237.475204,409.830780 
	C233.626312,409.825378 232.139847,412.426086 232.085205,415.602081 
	C232.008636,420.053162 232.793335,424.517273 232.750031,428.971344 
	C232.718414,432.224823 233.748138,433.394012 237.050354,433.299377 
	C243.874908,433.103821 250.711899,433.362000 257.538269,433.200439 
	C260.868042,433.121643 262.125183,434.550934 261.826721,437.668274 
	C261.574493,440.302734 260.959839,442.935730 261.008759,445.559998 
	C261.206757,456.183167 261.753906,466.801331 261.850128,477.424255 
	C261.893768,482.243286 264.468933,483.954529 268.604248,484.064362 
	C274.644440,484.224792 280.692078,484.105560 286.457886,484.105560 
	C286.688110,480.385376 287.023651,477.790558 286.979095,475.202332 
	C286.768646,462.968567 286.525024,450.734375 286.133575,438.505402 
	C286.016571,434.849487 286.853058,432.886566 291.084747,433.179565 
	C295.557739,433.489319 300.075897,433.263458 304.569427,433.119110 
	C307.563141,433.022980 309.577759,431.961273 309.154083,428.276154 
	C308.832733,425.480896 309.088531,422.619354 309.090973,418.884277 
M720.938965,444.500000 
	C720.938965,432.104980 720.938965,419.709961 720.938965,406.758087 
	C710.220459,412.102051 703.871643,402.092255 694.681946,401.151337 
	C695.621277,403.537170 696.180725,404.958069 696.777954,406.474854 
	C694.103821,407.692566 691.737854,408.769958 689.369080,409.848633 
	C689.718384,411.378662 690.373596,412.871643 690.350952,414.354279 
	C689.971558,439.131775 689.515442,463.908142 689.049622,488.684235 
	C689.002625,491.184937 689.605042,492.979370 692.572205,492.946198 
	C695.243958,492.916351 698.368896,493.285278 698.525452,489.479889 
	C698.679504,485.737457 702.977966,484.863831 703.604431,485.408661 
	C708.729492,489.865875 715.466675,484.097504 720.136108,489.541382 
	C720.510681,489.066711 720.885315,488.592041 721.259888,488.117371 
	C720.548401,485.938721 719.836914,483.760071 719.394470,482.405334 
	C720.000916,480.482239 720.862305,478.995178 720.878662,477.498901 
	C720.995483,466.833679 720.939758,456.166534 720.938965,444.500000 
z"/>
<path fill="#0FA7ED" opacity="1.000000" stroke="none" 
	d="
M378.022583,433.090698 
	C378.022583,433.090698 377.585388,432.947632 377.307404,432.460541 
	C377.029419,425.212769 377.029419,418.452087 377.029419,411.780273 
	C378.094971,411.492157 378.560699,411.256836 379.026825,411.256012 
	C397.008759,411.225159 414.991791,411.132080 432.970764,411.358246 
	C434.450134,411.376862 436.694183,413.297180 437.243042,414.817596 
	C442.266113,428.732147 447.035278,442.739258 451.789032,456.749756 
	C454.548523,464.882568 457.144287,473.070923 460.026642,481.885315 
	C452.870850,481.885315 446.411499,481.980164 439.960968,481.784729 
	C438.975586,481.754883 437.256195,480.445892 437.189331,479.622009 
	C436.629669,472.723480 432.026367,472.645966 426.872528,472.998322 
	C423.723969,473.213593 420.548157,473.043793 417.384674,473.025909 
	C409.407867,472.980713 409.407898,472.975983 407.740509,480.802002 
	C407.349243,480.828003 406.957977,480.854004 405.945251,480.701477 
	C400.219757,480.036713 395.115692,479.550446 390.011627,479.064148 
	C389.001709,478.969940 387.991791,478.875763 386.551941,478.437195 
	C390.977539,463.297424 395.833038,448.502075 400.890686,433.090698 
	C392.863190,433.090698 385.442871,433.090698 378.022583,433.090698 
M422.986298,438.920410 
	C422.552216,438.903046 421.774353,438.766907 421.733429,438.885376 
	C419.600800,445.059448 417.530609,451.255066 415.342255,457.781311 
	C420.516693,457.781311 424.747345,457.781311 429.671295,457.781311 
	C427.456665,451.336761 425.420624,445.411957 422.986298,438.920410 
z"/>
<path fill="#0FA7ED" opacity="1.000000" stroke="none" 
	d="
M559.520996,457.000977 
	C559.369873,450.182739 559.060730,443.862610 559.124756,437.546234 
	C559.164307,433.642822 557.256165,432.817413 553.858459,432.917847 
	C547.867432,433.094849 541.868042,433.010620 535.872314,432.994568 
	C534.084290,432.989777 532.296692,432.847443 530.164734,432.752838 
	C530.164734,425.549011 530.164734,418.780273 530.164734,411.497803 
	C532.126404,411.275909 534.219116,410.837067 536.312561,410.833679 
	C557.133118,410.799866 577.955261,410.967743 598.773499,410.750885 
	C603.150635,410.705292 604.379272,412.307861 604.192261,416.257080 
	C603.987488,420.579559 603.988708,424.915863 604.035339,429.244690 
	C604.064941,431.993958 602.970642,433.083405 600.147888,433.006683 
	C594.349731,432.849121 588.544373,432.959320 582.057007,432.959320 
	C582.057007,439.109253 582.058289,444.724182 582.056641,450.339142 
	C582.053894,459.500366 581.929932,468.663940 582.108765,477.821594 
	C582.172974,481.108521 581.028870,482.301971 577.801025,482.204193 
	C573.142639,482.063080 568.468628,482.071106 563.814270,482.290283 
	C560.562866,482.443359 559.379700,481.273163 559.468750,477.987091 
	C559.653809,471.162842 559.522034,464.329987 559.520996,457.000977 
z"/>
<path fill="#11A7EB" opacity="1.000000" stroke="none" 
	d="
M865.714172,432.770996 
	C865.714172,432.770996 865.323792,432.840057 864.688049,432.868103 
	C856.243286,432.913574 848.430664,432.788696 840.626404,432.990265 
	C833.444397,433.175720 828.208679,438.303467 827.885071,445.040588 
	C827.477356,453.529266 831.346130,459.173737 839.029236,459.937134 
	C846.273071,460.656860 853.609070,460.646332 860.901794,460.592010 
	C864.439026,460.565704 866.069824,461.354736 865.837097,465.282288 
	C865.513245,470.747162 865.722412,476.243591 865.703491,481.726532 
	C865.703430,481.726532 865.301819,481.825287 864.674683,481.885803 
	C856.401489,481.934326 848.752686,482.051056 841.109985,481.883881 
	C824.588196,481.522491 809.279846,469.122101 806.970398,454.391510 
	C803.863892,434.576111 812.432129,418.209290 830.703613,413.473267 
	C841.059937,410.788879 852.390808,411.799377 863.292297,411.420593 
	C864.066345,411.393707 865.575623,413.608093 865.624084,414.824921 
	C865.861938,420.798676 865.721252,426.787506 865.714172,432.770996 
z"/>
<path fill="#CEF7FC" opacity="1.000000" stroke="none" 
	d="
M113.047424,417.061523 
	C113.047424,414.267853 113.047424,411.474182 113.047424,409.598389 
	C118.121147,409.030823 122.528107,408.236237 126.954292,408.108612 
	C134.945847,407.878174 142.949173,408.086182 150.947083,408.034424 
	C156.474976,407.998657 162.347595,409.267365 166.503189,403.469910 
	C166.998413,403.676392 167.493652,403.882874 167.988876,404.089325 
	C168.306610,407.178558 168.924988,410.272614 168.875153,413.355927 
	C168.789597,418.649719 168.110107,423.934082 168.029922,429.227722 
	C167.986267,432.109589 166.932434,433.535095 164.141815,433.950226 
	C160.432709,434.501953 158.139954,435.766510 160.603973,440.144073 
	C161.085388,440.999359 160.141281,443.475159 159.133881,444.195526 
	C156.225372,446.275299 156.396866,447.543793 159.428253,449.166534 
	C160.198288,449.578796 160.850998,450.961945 160.867188,451.910767 
	C160.988113,458.989380 160.941284,466.070953 160.927155,473.151550 
	C160.925858,473.800049 160.785294,474.448273 160.672806,475.409241 
	C159.203522,475.409241 157.840225,475.409241 156.330078,475.409241 
	C156.040634,477.252899 155.791183,478.841797 155.500168,480.695465 
	C148.810028,480.604340 143.036514,482.354492 138.655502,487.999634 
	C135.859482,487.075348 132.947968,486.112885 129.646652,485.021576 
	C129.230301,486.907928 128.857834,488.595398 128.343704,490.924774 
	C118.656555,490.924774 108.854919,491.300385 99.118958,490.666840 
	C96.611694,490.503693 94.536270,486.705200 91.861435,485.396179 
	C88.078232,483.544678 88.863373,480.737305 88.930420,477.606201 
	C89.025795,473.151855 88.272446,468.678925 88.374519,464.225250 
	C88.418854,462.290466 89.321312,460.107849 90.499428,458.536774 
	C91.856873,456.726624 93.949623,455.467865 95.960999,453.768616 
	C99.481964,459.948914 105.785690,456.148529 111.082878,456.862579 
	C111.616928,456.934601 113.022278,455.242554 112.895630,454.587067 
	C112.583496,452.971588 112.015503,450.836487 110.817001,450.093842 
	C108.991348,448.962524 106.546478,448.830505 105.791298,448.637939 
	C104.935333,444.162750 103.848328,440.558105 103.659271,436.906952 
	C103.469994,433.251678 104.110352,429.542175 104.532715,425.873199 
	C104.662193,424.748444 105.817474,423.536041 105.574165,422.607025 
	C103.821648,415.915466 108.524200,417.114319 112.578171,417.369110 
	C108.961960,422.714508 106.832848,428.228882 107.385048,434.767578 
	C108.181114,444.193787 114.264114,449.386261 121.775078,453.618164 
	C124.349503,455.068634 126.799828,456.739410 129.306854,458.309509 
	C129.143875,458.867859 128.980896,459.426208 128.817917,459.984528 
	C125.955711,460.220459 123.095192,460.630829 120.230957,460.658661 
	C112.408249,460.734680 104.580574,460.777710 96.761856,460.570251 
	C93.207695,460.475922 91.511024,461.416595 91.803818,465.321869 
	C92.101677,469.294952 92.054115,473.318512 91.816879,477.299652 
	C91.612801,480.724213 92.752113,482.014740 96.301720,481.968353 
	C109.450638,481.796509 122.606354,482.057434 135.752716,481.803711 
	C147.995270,481.567444 157.853073,470.616943 156.800323,458.775299 
	C155.997681,449.747009 150.472794,444.140106 142.937057,440.007629 
	C140.062347,438.431183 137.318222,436.616638 134.514587,434.910614 
	C134.733261,434.310730 134.951935,433.710846 135.170624,433.110962 
	C144.669525,433.110962 154.168442,433.110962 164.260742,433.110962 
	C164.260742,426.247437 164.425507,420.133240 164.096756,414.045715 
	C164.042664,413.044189 161.850128,411.394440 160.597488,411.347900 
	C153.615479,411.088684 146.612991,411.409546 139.628082,411.192200 
	C130.234451,410.899872 121.017914,411.062317 113.047424,417.061523 
M153.870987,434.522400 
	C152.765350,434.647156 151.469818,434.452942 150.598679,434.971588 
	C149.301483,435.743896 148.303925,437.019470 147.178848,438.080872 
	C148.680374,438.592377 150.181915,439.103912 151.683441,439.615417 
	C152.003357,437.703278 158.028961,439.185638 153.870987,434.522400 
z"/>
<path fill="#3EA6CD" opacity="1.000000" stroke="none" 
	d="
M309.089233,419.335785 
	C309.088531,422.619354 308.832733,425.480896 309.154083,428.276154 
	C309.577759,431.961273 307.563141,433.022980 304.569427,433.119110 
	C300.075897,433.263458 295.557739,433.489319 291.084747,433.179565 
	C286.853058,432.886566 286.016571,434.849487 286.133575,438.505402 
	C286.525024,450.734375 286.768646,462.968567 286.979095,475.202332 
	C287.023651,477.790558 286.688110,480.385376 286.457886,484.105560 
	C280.692078,484.105560 274.644440,484.224792 268.604248,484.064362 
	C264.468933,483.954529 261.893768,482.243286 261.850128,477.424255 
	C261.753906,466.801331 261.206757,456.183167 261.008759,445.559998 
	C260.959839,442.935730 261.574493,440.302734 261.826721,437.668274 
	C262.125183,434.550934 260.868042,433.121643 257.538269,433.200439 
	C250.711899,433.362000 243.874908,433.103821 237.050354,433.299377 
	C233.748138,433.394012 232.718414,432.224823 232.750031,428.971344 
	C232.793335,424.517273 232.008636,420.053162 232.085205,415.602081 
	C232.139847,412.426086 233.626312,409.825378 237.475204,409.830780 
	C259.298462,409.861481 281.121948,409.855225 302.944794,409.963776 
	C307.332214,409.985565 308.928162,412.515717 309.089233,419.335785 
M283.038177,467.490875 
	C283.038391,458.660828 283.039337,449.830811 283.038666,441.000763 
	C283.038025,432.582336 283.567352,432.057739 292.127655,432.006226 
	C305.224609,431.927429 305.061096,431.926758 305.114624,418.598694 
	C305.132507,414.147217 303.564880,412.887421 299.275452,412.934998 
	C282.283966,413.123474 265.289062,413.005341 248.295425,413.002777 
	C236.681824,413.001038 236.687027,413.002777 235.959427,424.787048 
	C235.908508,425.611603 235.562683,426.429932 235.584793,427.244904 
	C235.677490,430.662933 236.609924,432.694061 240.921265,432.303955 
	C246.869400,431.765747 252.899719,431.978760 258.889435,432.111847 
	C262.978333,432.202667 265.328918,433.603363 265.141479,438.696655 
	C264.694580,450.842194 265.145477,463.018097 264.928436,475.176300 
	C264.852905,479.408752 265.996765,481.086609 270.528717,481.036072 
	C283.036926,480.896576 283.038971,481.079559 283.038177,467.490875 
z"/>
<path fill="#CEF7FC" opacity="1.000000" stroke="none" 
	d="
M866.118774,432.833069 
	C865.721252,426.787506 865.861938,420.798676 865.624084,414.824921 
	C865.575623,413.608093 864.066345,411.393707 863.292297,411.420593 
	C852.390808,411.799377 841.059937,410.788879 830.703613,413.473267 
	C812.432129,418.209290 803.863892,434.576111 806.970398,454.391510 
	C809.279846,469.122101 824.588196,481.522491 841.109985,481.883881 
	C848.752686,482.051056 856.401489,481.934326 864.508789,482.009216 
	C864.969971,484.721802 864.969971,487.371521 864.969971,491.357819 
	C854.204590,490.822571 843.866943,490.308594 833.154907,489.776001 
	C833.734619,483.548798 831.638123,482.020996 826.733215,481.606476 
	C823.106079,481.299896 817.482910,482.553497 816.584717,477.017487 
	C812.299866,478.370941 808.252075,479.735138 804.141174,480.871246 
	C803.375732,481.082764 802.251709,480.534515 801.499634,480.029480 
	C801.124268,479.777435 801.215210,478.830872 801.018677,477.794586 
	C806.213867,477.948517 809.572815,475.834015 809.686035,470.456207 
	C809.785828,465.719788 806.804565,464.186646 801.525635,465.004700 
	C802.399841,462.932770 803.005066,461.878510 803.275696,460.744415 
	C803.519287,459.723175 803.864441,458.052734 803.360840,457.632935 
	C799.248962,454.204834 800.969971,450.516205 802.310913,446.595795 
	C802.844238,445.036743 802.461243,443.111206 802.287170,441.373352 
	C801.802246,436.532471 801.208191,431.702545 801.762329,426.625305 
	C802.957520,428.100861 804.152771,429.576416 806.371643,432.315704 
	C807.284241,428.447266 807.856995,426.019409 808.429810,423.591583 
	C808.015015,423.471649 807.600281,423.351715 807.185547,423.231781 
	C810.031799,418.979828 819.716125,420.840515 817.140625,411.996826 
	C821.077271,411.321899 824.802490,410.808441 828.464966,410.007843 
	C830.625183,409.535675 832.679260,408.588409 834.794373,407.895386 
	C835.712402,407.594574 836.663635,407.184875 837.600281,407.183380 
	C846.674072,407.168976 855.748169,407.273895 864.821899,407.246765 
	C867.850464,407.237701 872.179138,413.137146 871.630432,416.581726 
	C870.787903,421.870758 870.065125,427.178894 869.230774,432.895172 
	C868.786743,432.895172 867.655090,432.895172 866.118774,432.833069 
M803.215515,435.649536 
	C803.265320,435.273376 803.315125,434.897186 803.364929,434.521027 
	C803.097290,434.518982 802.829712,434.516937 802.562073,434.514923 
	C802.603699,434.891571 802.645264,435.268219 803.215515,435.649536 
z"/>
<path fill="#CEF7FC" opacity="1.000000" stroke="none" 
	d="
M720.938965,445.000000 
	C720.939758,456.166534 720.995483,466.833679 720.878662,477.498901 
	C720.862305,478.995178 720.000916,480.482239 719.394470,482.405334 
	C719.836914,483.760071 720.548401,485.938721 721.259888,488.117371 
	C720.885315,488.592041 720.510681,489.066711 720.136108,489.541382 
	C715.466675,484.097504 708.729492,489.865875 703.604431,485.408661 
	C702.977966,484.863831 698.679504,485.737457 698.525452,489.479889 
	C698.368896,493.285278 695.243958,492.916351 692.572205,492.946198 
	C689.605042,492.979370 689.002625,491.184937 689.049622,488.684235 
	C689.515442,463.908142 689.971558,439.131775 690.350952,414.354279 
	C690.373596,412.871643 689.718384,411.378662 689.369080,409.848633 
	C691.737854,408.769958 694.103821,407.692566 696.777954,406.474854 
	C696.180725,404.958069 695.621277,403.537170 694.681946,401.151337 
	C703.871643,402.092255 710.220459,412.102051 720.938965,406.758087 
	C720.938965,419.709961 720.938965,432.104980 720.938965,445.000000 
M715.795837,440.500000 
	C715.795837,430.900940 715.795837,421.301880 715.795837,411.106476 
	C708.874268,411.106476 702.586548,410.914307 696.333496,411.293701 
	C695.277893,411.357727 693.526062,413.884705 693.523682,415.276154 
	C693.489197,435.568939 693.692688,455.862183 693.857178,476.155182 
	C693.871521,477.927826 694.010620,479.699493 694.115784,481.996124 
	C700.156006,481.996124 705.782471,481.804993 711.388000,482.064819 
	C714.987732,482.231689 715.919495,480.860535 715.870422,477.447205 
	C715.698303,465.466919 715.798523,453.482727 715.795837,440.500000 
M692.684509,485.609009 
	C692.986023,485.384827 693.287537,485.160675 693.589050,484.936523 
	C693.404297,484.744446 693.219482,484.552338 693.034790,484.360260 
	C692.797607,484.651764 692.560486,484.943268 692.684509,485.609009 
z"/>
<path fill="#CEF7FC" opacity="1.000000" stroke="none" 
	d="
M408.172119,480.863739 
	C409.407898,472.975983 409.407867,472.980713 417.384674,473.025909 
	C420.548157,473.043793 423.723969,473.213593 426.872528,472.998322 
	C432.026367,472.645966 436.629669,472.723480 437.189331,479.622009 
	C437.256195,480.445892 438.975586,481.754883 439.960968,481.784729 
	C446.411499,481.980164 452.870850,481.885315 460.026642,481.885315 
	C457.144287,473.070923 454.548523,464.882568 451.789032,456.749756 
	C447.035278,442.739258 442.266113,428.732147 437.243042,414.817596 
	C436.694183,413.297180 434.450134,411.376862 432.970764,411.358246 
	C414.991791,411.132080 397.008759,411.225159 379.026825,411.256012 
	C378.560699,411.256836 378.094971,411.492157 377.029419,411.780273 
	C377.029419,418.452087 377.029419,425.212769 377.079346,432.430573 
	C374.053436,433.360229 373.967010,431.354279 374.041687,429.186218 
	C374.142365,426.264008 374.408508,423.330627 374.250519,420.421234 
	C374.096771,417.589600 373.627045,414.635132 369.336395,416.826172 
	C370.791840,406.015381 371.638367,405.004120 377.524719,405.568726 
	C378.499603,403.849487 379.348877,402.351776 380.198120,400.854065 
	C380.617859,401.109558 381.037598,401.365082 381.457336,401.620605 
	C380.674744,407.669098 381.856750,408.986389 388.339630,409.003510 
	C401.158203,409.037384 413.976959,409.024902 426.795563,408.995392 
	C428.110168,408.992371 429.484314,408.945435 430.728241,408.574615 
	C436.526642,406.846100 439.552887,409.145935 441.129730,415.313629 
	C442.476929,420.583038 445.043304,425.528381 446.696472,430.735779 
	C448.065887,435.049591 449.231018,439.490448 449.835327,443.963043 
	C450.237183,446.937164 450.412231,449.151855 454.176544,449.203949 
	C455.063049,449.216187 455.929047,450.710663 456.804474,451.523315 
	C456.041473,451.934113 455.278473,452.344940 454.892334,452.552826 
	C457.831451,463.159515 460.744019,473.670441 463.952087,485.247650 
	C453.556183,484.646301 443.772614,484.080353 433.874237,483.507782 
	C433.742981,483.372406 433.408173,483.180664 433.314880,482.906677 
	C432.537476,480.622711 431.530212,476.283386 431.100159,476.341217 
	C426.191376,477.001251 420.799103,473.530151 416.212677,478.375031 
	C414.589539,480.089630 411.191467,480.124023 408.172119,480.863739 
z"/>
<path fill="#CEF7FC" opacity="1.000000" stroke="none" 
	d="
M866.095703,481.694824 
	C865.722412,476.243591 865.513245,470.747162 865.837097,465.282288 
	C866.069824,461.354736 864.439026,460.565704 860.901794,460.592010 
	C853.609070,460.646332 846.273071,460.656860 839.029236,459.937134 
	C831.346130,459.173737 827.477356,453.529266 827.885071,445.040588 
	C828.208679,438.303467 833.444397,433.175720 840.626404,432.990265 
	C848.430664,432.788696 856.243286,432.913574 864.514038,432.963013 
	C865.371094,436.494446 863.570068,438.078430 860.348145,437.902069 
	C855.300781,437.625763 850.268250,437.078613 844.782349,436.607819 
	C844.239990,441.205566 840.508240,441.294800 836.542786,440.952515 
	C834.103333,440.742004 832.787231,441.547791 832.960999,444.304138 
	C833.141174,447.163025 833.001099,450.042084 833.001099,453.977936 
	C837.491028,457.738831 843.200745,449.823792 848.612305,454.103973 
	C848.612305,455.246460 848.612305,456.834106 848.612305,458.541016 
	C854.406128,458.541016 860.248474,459.105591 865.916626,458.355042 
	C870.145142,457.795166 870.638977,459.856506 870.487488,462.655457 
	C870.212036,467.746521 869.646606,472.835754 868.882568,477.877289 
	C868.677673,479.229156 867.317566,480.405945 866.095703,481.694824 
z"/>
<path fill="#CEF7FC" opacity="1.000000" stroke="none" 
	d="
M378.301697,433.358948 
	C385.442871,433.090698 392.863190,433.090698 400.890686,433.090698 
	C395.833038,448.502075 390.977539,463.297424 386.170746,478.465271 
	C385.557983,477.495361 384.106171,475.970795 384.366638,474.841003 
	C385.782501,468.699554 387.682220,462.671600 389.280365,456.569183 
	C389.842865,454.421295 390.022705,452.173187 390.477539,449.348175 
	C394.052582,447.656616 395.656982,438.760559 392.134430,434.152344 
	C389.337982,436.172699 386.467529,438.594147 383.365845,434.213226 
	C382.741150,433.330933 380.224945,433.787811 378.301697,433.358948 
z"/>
<path fill="#CEF7FC" opacity="1.000000" stroke="none" 
	d="
M390.270752,479.329895 
	C395.115692,479.550446 400.219757,480.036713 405.654785,480.748291 
	C400.833832,480.514252 395.681854,480.054962 390.270752,479.329895 
z"/>
<path fill="#CEF7FC" opacity="1.000000" stroke="none" 
	d="
M423.185455,439.203796 
	C425.420624,445.411957 427.456665,451.336761 429.671295,457.781311 
	C424.747345,457.781311 420.516693,457.781311 415.342255,457.781311 
	C417.530609,451.255066 419.600800,445.059448 421.733429,438.885376 
	C421.774353,438.766907 422.552216,438.903046 423.185455,439.203796 
z"/>
<path fill="#0FA7ED" opacity="1.000000" stroke="none" 
	d="
M113.023987,417.031067 
	C121.017914,411.062317 130.234451,410.899872 139.628082,411.192200 
	C146.612991,411.409546 153.615479,411.088684 160.597488,411.347900 
	C161.850128,411.394440 164.042664,413.044189 164.096756,414.045715 
	C164.425507,420.133240 164.260742,426.247437 164.260742,433.110962 
	C154.168442,433.110962 144.669525,433.110962 135.170624,433.110962 
	C134.951935,433.710846 134.733261,434.310730 134.514587,434.910614 
	C137.318222,436.616638 140.062347,438.431183 142.937057,440.007629 
	C150.472794,444.140106 155.997681,449.747009 156.800323,458.775299 
	C157.853073,470.616943 147.995270,481.567444 135.752716,481.803711 
	C122.606354,482.057434 109.450638,481.796509 96.301720,481.968353 
	C92.752113,482.014740 91.612801,480.724213 91.816879,477.299652 
	C92.054115,473.318512 92.101677,469.294952 91.803818,465.321869 
	C91.511024,461.416595 93.207695,460.475922 96.761856,460.570251 
	C104.580574,460.777710 112.408249,460.734680 120.230957,460.658661 
	C123.095192,460.630829 125.955711,460.220459 128.817917,459.984528 
	C128.980896,459.426208 129.143875,458.867859 129.306854,458.309509 
	C126.799828,456.739410 124.349503,455.068634 121.775078,453.618164 
	C114.264114,449.386261 108.181114,444.193787 107.385048,434.767578 
	C106.832848,428.228882 108.961960,422.714508 113.011688,417.394043 
	C113.061470,417.047424 113.000549,417.000641 113.023987,417.031067 
z"/>
<path fill="#FFFFFF" opacity="1.000000" stroke="none" 
	d="
M154.162979,434.739624 
	C158.028961,439.185638 152.003357,437.703278 151.683441,439.615417 
	C150.181915,439.103912 148.680374,438.592377 147.178848,438.080872 
	C148.303925,437.019470 149.301483,435.743896 150.598679,434.971588 
	C151.469818,434.452942 152.765350,434.647156 154.162979,434.739624 
z"/>
<path fill="#0CA8F0" opacity="1.000000" stroke="none" 
	d="
M283.038391,467.988861 
	C283.038971,481.079559 283.036926,480.896576 270.528717,481.036072 
	C265.996765,481.086609 264.852905,479.408752 264.928436,475.176300 
	C265.145477,463.018097 264.694580,450.842194 265.141479,438.696655 
	C265.328918,433.603363 262.978333,432.202667 258.889435,432.111847 
	C252.899719,431.978760 246.869400,431.765747 240.921265,432.303955 
	C236.609924,432.694061 235.677490,430.662933 235.584793,427.244904 
	C235.562683,426.429932 235.908508,425.611603 235.959427,424.787048 
	C236.687027,413.002777 236.681824,413.001038 248.295425,413.002777 
	C265.289062,413.005341 282.283966,413.123474 299.275452,412.934998 
	C303.564880,412.887421 305.132507,414.147217 305.114624,418.598694 
	C305.061096,431.926758 305.224609,431.927429 292.127655,432.006226 
	C283.567352,432.057739 283.038025,432.582336 283.038666,441.000763 
	C283.039337,449.830811 283.038391,458.660828 283.038391,467.988861 
z"/>
<path fill="#FFFFFF" opacity="1.000000" stroke="none" 
	d="
M802.951172,435.647217 
	C802.645264,435.268219 802.603699,434.891571 802.562073,434.514923 
	C802.829712,434.516937 803.097290,434.518982 803.364929,434.521027 
	C803.315125,434.897186 803.265320,435.273376 802.951172,435.647217 
z"/>
<path fill="#3EA6CD" opacity="1.000000" stroke="none" 
	d="
M715.795654,441.000000 
	C715.798523,453.482727 715.698303,465.466919 715.870422,477.447205 
	C715.919495,480.860535 714.987732,482.231689 711.388000,482.064819 
	C705.782471,481.804993 700.156006,481.996124 694.115784,481.996124 
	C694.010620,479.699493 693.871521,477.927826 693.857178,476.155182 
	C693.692688,455.862183 693.489197,435.568939 693.523682,415.276154 
	C693.526062,413.884705 695.277893,411.357727 696.333496,411.293701 
	C702.586548,410.914307 708.874268,411.106476 715.795837,411.106476 
	C715.795837,421.301880 715.795837,430.900940 715.795654,441.000000 
M713.049927,425.536987 
	C712.908936,412.168549 714.750671,414.262848 701.326355,413.874725 
	C697.105835,413.752686 695.864746,415.356934 695.906860,419.419098 
	C696.074219,435.558777 695.975647,451.701172 695.975586,467.842560 
	C695.975586,480.217133 695.978027,480.025940 708.193481,480.183105 
	C712.381897,480.237030 713.152344,478.673645 713.115417,474.951172 
	C712.955261,458.811371 713.048706,442.669098 713.049927,425.536987 
z"/>
<path fill="#FFFFFF" opacity="1.000000" stroke="none" 
	d="
M692.503906,485.421875 
	C692.560486,484.943268 692.797607,484.651764 693.034790,484.360229 
	C693.219482,484.552338 693.404297,484.744446 693.589050,484.936523 
	C693.287537,485.160675 692.986023,485.384827 692.503906,485.421875 
z"/>
<path fill="#0CA8F0" opacity="1.000000" stroke="none" 
	d="
M713.049927,426.032349 
	C713.048706,442.669098 712.955261,458.811371 713.115417,474.951172 
	C713.152344,478.673645 712.381897,480.237030 708.193481,480.183105 
	C695.978027,480.025940 695.975586,480.217133 695.975586,467.842560 
	C695.975647,451.701172 696.074219,435.558777 695.906860,419.419098 
	C695.864746,415.356934 697.105835,413.752686 701.326355,413.874725 
	C714.750671,414.262848 712.908936,412.168549 713.049927,426.032349 
z"/>
</svg>